<svg width="23" height="22" viewBox="0 0 23 22" fill="none" xmlns="http://www.w3.org/2000/svg">
<g clip-path="url(#clip0_1660_3515)">
<path d="M11.0961 17.6004C14.7412 17.6004 17.6961 14.6455 17.6961 11.0004C17.6961 7.35531 14.7412 4.40039 11.0961 4.40039C7.45101 4.40039 4.49609 7.35531 4.49609 11.0004C4.49609 14.6455 7.45101 17.6004 11.0961 17.6004Z" fill="#FDFDFD"/>
<path d="M22.0957 11.5156C22.0957 12.2848 21.9109 12.998 21.5414 13.6512C21.1719 14.3043 20.6777 14.8156 20.0547 15.1723C20.0719 15.2883 20.0805 15.4688 20.0805 15.7137C20.0805 16.8782 19.6895 17.8664 18.916 18.6828C18.1383 19.5036 17.2016 19.9118 16.1059 19.9118C15.616 19.9118 15.1477 19.8215 14.7051 19.641C14.3613 20.3457 13.8672 20.9128 13.2184 21.3469C12.5738 21.7851 11.8648 22 11.0957 22C10.3094 22 9.59609 21.7895 8.96016 21.3597C8.31993 20.9344 7.83008 20.3628 7.48632 19.641C7.04375 19.8215 6.57968 19.9118 6.08555 19.9118C4.98984 19.9118 4.04883 19.5036 3.2625 18.6828C2.47617 17.8664 2.08516 16.8738 2.08516 15.7137C2.08516 15.5848 2.10234 15.4043 2.13242 15.1723C1.50937 14.8113 1.01523 14.3043 0.645703 13.6512C0.280469 12.998 0.0957031 12.2848 0.0957031 11.5156C0.0957031 10.6992 0.301954 9.94727 0.710157 9.26835C1.11836 8.58945 1.66836 8.08671 2.35586 7.76015C2.17539 7.27032 2.08516 6.77617 2.08516 6.28633C2.08516 5.12617 2.47617 4.13359 3.2625 3.31719C4.04883 2.50079 4.98984 2.08828 6.08555 2.08828C6.57539 2.08828 7.04375 2.17851 7.48632 2.35899C7.83008 1.6543 8.32422 1.08711 8.97304 0.653125C9.61758 0.219141 10.3266 0 11.0957 0C11.8648 0 12.5738 0.219141 13.2184 0.648828C13.8629 1.08281 14.3613 1.65 14.7051 2.35469C15.1477 2.17422 15.6117 2.08399 16.1059 2.08399C17.2016 2.08399 18.1383 2.49219 18.916 3.31289C19.6937 4.13359 20.0805 5.12187 20.0805 6.28204C20.0805 6.82343 19.9988 7.31328 19.8355 7.75586C20.5231 8.08243 21.0731 8.58515 21.4813 9.26407C21.8895 9.94727 22.0957 10.6992 22.0957 11.5156ZM10.6273 14.8285L15.1691 8.02656C15.2852 7.84609 15.3195 7.64843 15.2809 7.43789C15.2379 7.22735 15.1305 7.05976 14.95 6.94804C14.7695 6.83204 14.5719 6.79335 14.3613 6.82343C14.1465 6.85781 13.9746 6.96094 13.8457 7.1414L9.84532 13.157L8.00196 11.318C7.83868 11.1547 7.6496 11.0773 7.43906 11.0859C7.22422 11.0945 7.03945 11.1719 6.87617 11.318C6.73008 11.4641 6.65703 11.6488 6.65703 11.8723C6.65703 12.0914 6.73008 12.2762 6.87617 12.4266L9.40703 14.9574L9.53165 15.0562C9.67773 15.1551 9.82812 15.2023 9.97422 15.2023C10.2621 15.198 10.4812 15.0777 10.6273 14.8285Z" fill="#1DA1F2"/>
</g>
<defs>
<clipPath id="clip0_1660_3515">
<rect width="22" height="22" fill="white" transform="translate(0.0957031)"/>
</clipPath>
</defs>
</svg>
