<svg width="49" height="48" viewBox="0 0 49 48" fill="none" xmlns="http://www.w3.org/2000/svg">
<g id="Group 6">
<g id="Vector">
<path d="M24.7273 48C37.9821 48 48.7273 37.2548 48.7273 24C48.7273 10.7452 37.9821 0 24.7273 0C11.4724 0 0.727264 10.7452 0.727264 24C0.727264 37.2548 11.4724 48 24.7273 48Z" fill="url(#paint0_linear_124_624)"/>
<path d="M24.7273 48C37.9821 48 48.7273 37.2548 48.7273 24C48.7273 10.7452 37.9821 0 24.7273 0C11.4724 0 0.727264 10.7452 0.727264 24C0.727264 37.2548 11.4724 48 24.7273 48Z" fill="black" fill-opacity="0.2"/>
</g>
<path id="Vector_2" d="M32.18 14.9221C31.8553 14.9221 31.5379 15.0184 31.268 15.1988C30.998 15.3791 30.7876 15.6355 30.6634 15.9355C30.5391 16.2355 30.5066 16.5655 30.57 16.884C30.6333 17.2024 30.7896 17.4949 31.0192 17.7245C31.2488 17.9541 31.5413 18.1104 31.8597 18.1737C32.1782 18.2371 32.5083 18.2046 32.8082 18.0803C33.1082 17.9561 33.3646 17.7457 33.5449 17.4757C33.7253 17.2058 33.8216 16.8884 33.8216 16.5637C33.8216 16.1283 33.6486 15.7108 33.3408 15.4029C33.0329 15.0951 32.6154 14.9221 32.18 14.9221Z" fill="white"/>
<path id="Vector_3" d="M24.8421 17.0725C23.4659 17.0693 22.1198 17.4751 20.9747 18.2383C19.8296 19.0015 18.9371 20.0878 18.4105 21.3592C17.8838 22.6306 17.7469 24.0299 18.017 25.3793C18.2871 26.7287 18.952 27.9674 19.9274 28.9382C20.9028 29.9089 22.1447 30.568 23.4954 30.8317C24.846 31.0954 26.2446 30.9518 27.5135 30.4191C28.7824 29.8865 29.8644 28.9888 30.6222 27.8401C31.38 26.6913 31.7793 25.3433 31.7696 23.9672C31.7566 22.1369 31.0215 20.3858 29.7243 19.0947C28.427 17.8035 26.6724 17.0768 24.8421 17.0725ZM24.8421 28.4487C23.9615 28.452 23.0998 28.1938 22.3661 27.707C21.6323 27.2201 21.0596 26.5265 20.7203 25.7139C20.3811 24.9013 20.2907 24.0063 20.4605 23.1422C20.6303 22.2782 21.0527 21.484 21.6742 20.8602C22.2957 20.2364 23.0883 19.811 23.9517 19.638C24.8151 19.4651 25.7104 19.5522 26.5243 19.8884C27.3381 20.2246 28.0339 20.7948 28.5235 21.5268C29.013 22.2587 29.2744 23.1195 29.2744 24C29.2615 25.17 28.7899 26.2882 27.961 27.1141C27.1321 27.9399 26.0121 28.4074 24.8421 28.4159V28.4487Z" fill="white"/>
<path id="Vector_4" d="M30.3415 38.0519H19.1131C16.8722 38.0476 14.7244 37.1555 13.1399 35.5709C11.5553 33.9864 10.6632 31.8386 10.6589 29.5977V18.3529C10.6632 16.112 11.5553 13.9642 13.1399 12.3796C14.7244 10.7951 16.8722 9.90302 19.1131 9.89868H30.3415C32.5824 9.90302 34.7302 10.7951 36.3147 12.3796C37.8993 13.9642 38.7914 16.112 38.7957 18.3529V29.5977C38.7914 31.8386 37.8993 33.9864 36.3147 35.5709C34.7302 37.1555 32.5824 38.0476 30.3415 38.0519ZM19.1131 12.5416C17.5732 12.546 16.0976 13.1596 15.0087 14.2485C13.9198 15.3374 13.3062 16.813 13.3019 18.3529V29.5977C13.3062 31.1361 13.9204 32.61 15.0097 33.6963C16.0991 34.7825 17.5747 35.3925 19.1131 35.3925H30.3415C31.8799 35.3925 33.3556 34.7825 34.4449 33.6963C35.5342 32.61 36.1484 31.1361 36.1527 29.5977V18.3529C36.1484 16.813 35.5348 15.3374 34.4459 14.2485C33.357 13.1596 31.8814 12.546 30.3415 12.5416H19.1131Z" fill="white"/>
</g>
<defs>
<linearGradient id="paint0_linear_124_624" x1="41.7013" y1="7.02599" x2="7.75326" y2="40.974" gradientUnits="userSpaceOnUse">
<stop stop-color="#FBE18A"/>
<stop offset="0.21" stop-color="#FCBB45"/>
<stop offset="0.38" stop-color="#F75274"/>
<stop offset="0.52" stop-color="#D53692"/>
<stop offset="0.74" stop-color="#8F39CE"/>
<stop offset="1" stop-color="#5B4FE9"/>
</linearGradient>
</defs>
</svg>
