<svg width="49" height="48" viewBox="0 0 49 48" fill="none" xmlns="http://www.w3.org/2000/svg">
<g id="Group 20">
<path id="Vector" d="M24.7273 48C37.9821 48 48.7273 37.2548 48.7273 24C48.7273 10.7452 37.9821 0 24.7273 0C11.4724 0 0.727264 10.7452 0.727264 24C0.727264 37.2548 11.4724 48 24.7273 48Z" fill="url(#paint0_linear_124_617)"/>
<path id="Vector_2" d="M14.6644 19.535H19.2444V34.4734H14.6644V19.535ZM16.979 12.1643C17.5149 12.1578 18.0405 12.3114 18.4886 12.6055C18.9366 12.8996 19.2867 13.3207 19.494 13.8149C19.7013 14.3091 19.7564 14.854 19.6522 15.3797C19.548 15.9054 19.2893 16.388 18.9092 16.7658C18.529 17.1436 18.0448 17.3994 17.5184 17.5003C16.9921 17.6012 16.4476 17.5428 15.9547 17.3324C15.4617 17.1221 15.0428 16.7694 14.7515 16.3195C14.4603 15.8696 14.3099 15.3431 14.3196 14.8072C14.3282 14.1061 14.6117 13.4363 15.109 12.9421C15.6064 12.4478 16.2778 12.1685 16.979 12.1643Z" fill="white"/>
<path id="Vector_3" d="M22.2157 19.535H26.6808V21.5706C27.1326 20.814 27.7791 20.1926 28.553 19.771C29.3268 19.3494 30.1996 19.1432 31.0802 19.1739C35.7752 19.1739 36.6452 22.2601 36.6452 26.282V34.4899H32.0652V27.2176C32.0652 25.5761 32.0652 23.2614 29.6521 23.2614C27.2389 23.2614 26.8614 25.1493 26.8614 27.1027V34.4899H22.2157V19.535Z" fill="white"/>
</g>
<defs>
<linearGradient id="paint0_linear_124_617" x1="41.7013" y1="7.02599" x2="7.75326" y2="40.974" gradientUnits="userSpaceOnUse">
<stop stop-color="#007AB5"/>
<stop offset="1" stop-color="#0046E5"/>
</linearGradient>
</defs>
</svg>
